<?xml version="1.0" encoding="UTF-8"?>
<svg version="1.1" xmlns="http://www.w3.org/2000/svg" width="132" height="118">
<path d="M0 0 C6.04714285 5.22253246 8.22958835 9.60681521 9.08203125 17.40234375 C8.8671014 24.20845569 5.02367743 29.78129433 1.6875 35.5 C1.15479492 36.42216309 0.62208984 37.34432617 0.07324219 38.29443359 C-4.72817581 46.58536841 -9.58992785 54.84099033 -14.49609375 63.0703125 C-16.71599933 66.80312297 -18.89639368 70.55511917 -21.04367065 74.32992554 C-22.4454596 76.79008807 -23.86039585 79.24256892 -25.27648926 81.69451904 C-25.95779142 82.88184079 -26.6331912 84.07257243 -27.30212402 85.26690674 C-31.76195356 93.22187488 -36.01876944 100.00625648 -45 103 C-51.84289581 103.741415 -57.3487669 103.09053621 -63 99 C-67.0673781 95.22240965 -69.57134699 90.96511004 -70.36889648 85.44824219 C-70.54790508 78.11226721 -68.84577977 73.4570405 -65.0625 67.25 C-64.5567041 66.37786865 -64.0509082 65.5057373 -63.52978516 64.60717773 C-62.0431392 62.05673423 -60.52662208 59.5266611 -59 57 C-58.28677451 55.79876191 -57.5744161 54.59700818 -56.86328125 53.39453125 C-55.49223205 51.09687906 -54.11103737 48.80802289 -52.71875 46.5234375 C-50.40278994 42.70064222 -48.15178257 38.84097535 -45.90625 34.9765625 C-45.15511543 33.68611377 -44.40397605 32.39566784 -43.65283203 31.10522461 C-42.52565655 29.16825446 -41.39987188 27.23054909 -40.27874756 25.29006958 C-19.4083338 -10.82387847 -19.4083338 -10.82387847 0 0 Z " fill="#156435" transform="translate(117,9)"/>
<path d="M0 0 C6.11580952 3.47761718 10.01147933 8.14480029 12.1875 14.8125 C13.25227316 21.57757393 12.22254082 27.23793591 8.1875 32.8125 C4.3124409 36.98482391 0.01534038 39.4419554 -5.64453125 40.18359375 C-12.74110495 40.34170876 -17.41656333 39.58282082 -22.8125 34.8125 C-28.32710082 28.86253596 -29.38397443 24.16873152 -29.2578125 16.1484375 C-28.4759037 10.29098033 -25.61096839 6.22173298 -21.18359375 2.41015625 C-14.67373534 -2.17448088 -7.41345674 -2.30910948 0 0 Z " fill="#156435" transform="translate(35.8125,7.1875)"/>
<path d="M0 0 C0.33 0 0.66 0 1 0 C0.38958946 9.6613255 0.38958946 9.6613255 -3 14 C-3.99 14.495 -3.99 14.495 -5 15 C-5.28875 15.99 -5.5775 16.98 -5.875 18 C-6.24625 18.99 -6.6175 19.98 -7 21 C-9.125 21.875 -9.125 21.875 -11 22 C-11.11472656 22.71414062 -11.22945312 23.42828125 -11.34765625 24.1640625 C-12.03842154 27.16703016 -13.09945606 29.60362115 -14.4375 32.375 C-16.39472786 36.55532194 -17.90542648 40.52219925 -19 45 C-18.01 45 -17.02 45 -16 45 C-16 44.34 -16 43.68 -16 43 C-15.34 43 -14.68 43 -14 43 C-13.896875 42.175 -13.79375 41.35 -13.6875 40.5 C-12.90921891 36.53784171 -11.98252459 32.54990514 -10 29 C-9.01 28.67 -8.02 28.34 -7 28 C-6.67 28.33 -6.34 28.66 -6 29 C-6.05078125 30.92578125 -6.05078125 30.92578125 -6.3125 33.3125 C-6.43044922 34.48232422 -6.43044922 34.48232422 -6.55078125 35.67578125 C-7.02741409 38.14183812 -7.67054386 39.87196269 -9 42 C-9.99 42.66 -10.98 43.32 -12 44 C-12.33 44.99 -12.66 45.98 -13 47 C-12.43796875 47.13277344 -11.8759375 47.26554687 -11.296875 47.40234375 C-8.90633847 48.02437111 -6.58964225 48.77115041 -4.25 49.5625 C-3.45078125 49.83191406 -2.6515625 50.10132813 -1.828125 50.37890625 C-1.22484375 50.58386719 -0.6215625 50.78882813 0 51 C-1.65 52.65 -3.3 54.3 -5 56 C-8.057952 54.26440562 -10.63379989 52.61527381 -13 50 C-12.835 51.093125 -12.67 52.18625 -12.5 53.3125 C-12 57 -12 57 -12 60 C-16.56161068 56.65481883 -19.70351975 53.70289336 -21 48 C-21.96093815 39.72153028 -20.34353634 34.27315649 -16.0625 27.25 C-15.3212085 25.97116943 -15.3212085 25.97116943 -14.56494141 24.66650391 C-13.06705862 22.09602748 -11.53746987 19.54695008 -10 17 C-9.09924547 15.48237277 -8.19944821 13.96417681 -7.30078125 12.4453125 C-5.77584141 9.87831548 -4.23670854 7.32109283 -2.6796875 4.7734375 C-1.0486158 2.16457815 -1.0486158 2.16457815 0 0 Z " fill="#296940" transform="translate(68,49)"/>
<path d="M0 0 C5.05945832 2.02378333 6.87072783 5.51503963 9.046875 10.24609375 C11.0954424 16.16511021 10.92167654 21.58516415 8.375 27.3125 C5.27103668 32.74169378 0.95963888 36.04800234 -5 38 C-8.04296875 38.265625 -8.04296875 38.265625 -11.1875 38.25 C-12.23292969 38.25515625 -13.27835938 38.2603125 -14.35546875 38.265625 C-17 38 -17 38 -19 36 C-15.43954823 34.81318274 -12.56191663 34.90310168 -8.8125 34.9375 C-7.54019531 34.94652344 -6.26789062 34.95554688 -4.95703125 34.96484375 C-3.49330078 34.98224609 -3.49330078 34.98224609 -2 35 C-2 34.01 -2 33.02 -2 32 C-2.99 31.67 -3.98 31.34 -5 31 C-5.33 31.66 -5.66 32.32 -6 33 C-9.96 32.505 -9.96 32.505 -14 32 C-13.67 31.01 -13.34 30.02 -13 29 C-11.2578125 28.15625 -11.2578125 28.15625 -9.125 27.5 C-5.9142379 26.50478223 -4.32798727 25.39450119 -2 23 C-1.34 23 -0.68 23 0 23 C0.28875 23.639375 0.5775 24.27875 0.875 24.9375 C1.82823451 27.15206079 1.82823451 27.15206079 4 28 C5.53181187 22.03771689 6.58570226 17.81783009 4 12 C3.67 10.783125 3.34 9.56625 3 8.3125 C2.14622108 4.90455448 2.14622108 4.90455448 0 2 C0 1.34 0 0.68 0 0 Z " fill="#1B6334" transform="translate(38,9)"/>
<path d="M0 0 C4.95 0.33 9.9 0.66 15 1 C13 4 13 4 10 5 C9.67 5.66 9.34 6.32 9 7 C9.99 6.67 10.98 6.34 12 6 C14.6875 6.9375 14.6875 6.9375 17 8 C17.33 7.01 17.66 6.02 18 5 C19.32 5.66 20.64 6.32 22 7 C21.67 7.99 21.34 8.98 21 10 C18.27053158 10.33102704 15.5489057 10.61545539 12.8125 10.875 C11.65911133 11.02195312 11.65911133 11.02195312 10.48242188 11.171875 C4.95234962 11.64655931 4.95234962 11.64655931 2.29833984 9.84472656 C0.88671875 8.3203125 0.88671875 8.3203125 -1 5 C-0.67 3.35 -0.34 1.7 0 0 Z " fill="#106434" transform="translate(15,34)"/>
<path d="M0 0 C5.05945832 2.02378333 6.87072783 5.51503963 9.046875 10.24609375 C11.12895842 16.26194953 10.90345432 21.65487245 8.25 27.4375 C6.60253625 30.34998056 4.95756951 32.30996028 2 34 C1.505 32.515 1.505 32.515 1 31 C1.99 31 2.98 31 4 31 C4.09087891 30.09507813 4.09087891 30.09507813 4.18359375 29.171875 C4.26738281 28.37265625 4.35117187 27.5734375 4.4375 26.75 C4.51871094 25.96109375 4.59992187 25.1721875 4.68359375 24.359375 C5 22 5 22 5.5859375 19.87890625 C6.2352985 16.93227757 5.03814211 14.78659198 4 12 C3.67 10.783125 3.34 9.56625 3 8.3125 C2.14622108 4.90455448 2.14622108 4.90455448 0 2 C0 1.34 0 0.68 0 0 Z " fill="#3B724F" transform="translate(38,9)"/>
<path d="M0 0 C2.58585205 -0.16236745 5.16151954 -0.28095486 7.75 -0.375 C8.84441406 -0.45041016 8.84441406 -0.45041016 9.9609375 -0.52734375 C12.109375 -0.5859375 12.109375 -0.5859375 16 0 C18.88791948 3.24890942 19.92843058 5.03381279 20.25 9.375 C20.1675 10.24125 20.085 11.1075 20 12 C18.35 11.34 16.7 10.68 15 10 C15 8.68 15 7.36 15 6 C13.64455078 5.92652344 13.64455078 5.92652344 12.26171875 5.8515625 C11.08222656 5.77679687 9.90273438 5.70203125 8.6875 5.625 C7.51574219 5.55539063 6.34398437 5.48578125 5.13671875 5.4140625 C2 5 2 5 -1 3 C-0.67 2.01 -0.34 1.02 0 0 Z " fill="#0F6534" transform="translate(22,9)"/>
<path d="M0 0 C1.10515152 3.31545456 1.01028314 6.43713004 0.984375 9.90234375 C1.00790732 13.06155816 1.26202385 15.92509938 2 19 C3.93597032 20.51294288 3.93597032 20.51294288 6 21 C5.34 21 4.68 21 4 21 C4.10613836 23.45224694 4.10613836 23.45224694 5 26 C7.47636012 27.37466625 7.47636012 27.37466625 10 28 C9.67 28.66 9.34 29.32 9 30 C3.52505382 28.43572966 0.83343596 24.92203856 -2.125 20.20703125 C-3.29526978 17.2552347 -3.30151056 14.73112275 -3.3125 11.5625 C-3.32925781 10.45003906 -3.34601562 9.33757813 -3.36328125 8.19140625 C-2.96756708 4.71507852 -2.00367286 2.82840365 0 0 Z " fill="#1B6237" transform="translate(10,15)"/>
<path d="M0 0 C0.33 0 0.66 0 1 0 C0.38958946 9.6613255 0.38958946 9.6613255 -3 14 C-3.99 14.495 -3.99 14.495 -5 15 C-5.28875 15.99 -5.5775 16.98 -5.875 18 C-6.24625 18.99 -6.6175 19.98 -7 21 C-9.125 21.875 -9.125 21.875 -11 22 C-11.1546875 23.051875 -11.1546875 23.051875 -11.3125 24.125 C-12.43722913 28.82841275 -14.28957441 32.81963521 -18 36 C-18.66 35.67 -19.32 35.34 -20 35 C-7.59802972 12.9881114 -7.59802972 12.9881114 -2.75 4.5625 C-2.22921875 3.65628906 -1.7084375 2.75007813 -1.171875 1.81640625 C-0.78515625 1.21699219 -0.3984375 0.61757813 0 0 Z " fill="#4E7C5E" transform="translate(68,49)"/>
<path d="M0 0 C-0.33 2.31 -0.66 4.62 -1 7 C-1.66 7 -2.32 7 -3 7 C-3.1546875 8.5159375 -3.1546875 8.5159375 -3.3125 10.0625 C-4.03704767 14.21218208 -5.22269266 17.21356263 -7 21 C-7.66 21 -8.32 21 -9 21 C-9 21.66 -9 22.32 -9 23 C-9.99 23 -10.98 23 -12 23 C-12.125 20.125 -12.125 20.125 -12 17 C-11.34 16.34 -10.68 15.68 -10 15 C-8.94472112 12.43229715 -8.02485752 9.83127811 -7.09765625 7.21484375 C-6.73542969 6.48394531 -6.37320313 5.75304687 -6 5 C-5.01 4.67 -4.02 4.34 -3 4 C-3 3.01 -3 2.02 -3 1 C-1 0 -1 0 0 0 Z " fill="#106534" transform="translate(61,71)"/>
<path d="M0 0 C0.66 0 1.32 0 2 0 C0.55287861 3.93376885 -1.30813125 7.37360673 -3.4765625 10.95703125 C-4.146875 12.06884766 -4.8171875 13.18066406 -5.5078125 14.32617188 C-6.21346122 15.4883301 -6.9191914 16.65043887 -7.625 17.8125 C-8.33888165 18.99393526 -9.05242679 20.17557392 -9.765625 21.35742188 C-11.50711795 24.24029871 -13.25201382 27.12105724 -15 30 C-15.66 29.01 -16.32 28.02 -17 27 C-16.34 27 -15.68 27 -15 27 C-14.89945312 26.46632813 -14.79890625 25.93265625 -14.6953125 25.3828125 C-13.47801605 21.21117861 -11.20967559 17.50579408 -9.1796875 13.6796875 C-8.79039063 12.79539062 -8.40109375 11.91109375 -8 11 C-8.33 10.34 -8.66 9.68 -9 9 C-7.1875 7 -7.1875 7 -5 5 C-4.01 5 -3.02 5 -2 5 C-1.855625 4.360625 -1.71125 3.72125 -1.5625 3.0625 C-1 1 -1 1 0 0 Z " fill="#437856" transform="translate(116,44)"/>
<path d="M0 0 C3.27890799 3.27890799 2.93047241 7.51547025 3 12 C1.88192861 17.47854982 -1.20779422 22.20422672 -4 27 C-4.66 26.67 -5.32 26.34 -6 26 C-6 25.34 -6 24.68 -6 24 C-5.34 24 -4.68 24 -4 24 C-4 22.02 -4 20.04 -4 18 C-3.01 17.67 -2.02 17.34 -1 17 C-0.84161963 11.02418944 -0.84161963 11.02418944 -1.625 5.125 C-2 3 -2 3 0 0 Z " fill="#598366" transform="translate(123,17)"/>
<path d="M0 0 C0 0.33 0 0.66 0 1 C-1.05058594 1.02578125 -2.10117187 1.0515625 -3.18359375 1.078125 C-13.68239443 1.46063285 -13.68239443 1.46063285 -23.3984375 5.2578125 C-23.92695313 5.50273437 -24.45546875 5.74765625 -25 6 C-25.66 5.67 -26.32 5.34 -27 5 C-18.81284019 -2.23516448 -10.51842067 -4.4288087 0 0 Z " fill="#548063" transform="translate(38,8)"/>
<path d="M0 0 C1.21236328 0.01353516 1.21236328 0.01353516 2.44921875 0.02734375 C3.37154297 0.04474609 3.37154297 0.04474609 4.3125 0.0625 C4.3125 0.3925 4.3125 0.7225 4.3125 1.0625 C3.219375 1.18625 2.12625 1.31 1 1.4375 C-2.76131802 1.81714801 -2.76131802 1.81714801 -5.6875 4.0625 C-6.6775 4.3925 -7.6675 4.7225 -8.6875 5.0625 C-9.326875 5.866875 -9.96625 6.67125 -10.625 7.5 C-12.6875 10.0625 -12.6875 10.0625 -14.75 11 C-17.68421461 12.60908543 -18.39039009 15.0791472 -19.6875 18.0625 C-20.3475 18.0625 -21.0075 18.0625 -21.6875 18.0625 C-19.36029756 10.61545219 -14.4317245 4.80929139 -7.6875 1.0625 C-4.80538698 0.10179566 -2.98899956 -0.04331883 0 0 Z " fill="#3E6E4E" transform="translate(105.6875,5.9375)"/>
<path d="M0 0 C-3.44967536 3.83297263 -6.14282495 5.77368911 -11.3671875 6.1875 C-15.99872033 6.29744737 -19.81574351 6.23160346 -24 4 C-24 3.67 -24 3.34 -24 3 C-18.80790596 2.78807779 -14.873261 3.4087311 -10 5 C-10 4.01 -10 3.02 -10 2 C-6.42454167 -0.86036666 -4.36137826 -1.37071888 0 0 Z " fill="#487857" transform="translate(81,106)"/>
<path d="M0 0 C-6.14713677 3.35298369 -12.05176959 3.81185697 -19 3 C-19.66 2.34 -20.32 1.68 -21 1 C-17.61328536 -0.12890488 -14.62237188 -0.36351938 -11.0625 -0.625 C-9.83660156 -0.72039063 -8.61070313 -0.81578125 -7.34765625 -0.9140625 C-4.56409508 -0.98551915 -2.60567869 -0.87509009 0 0 Z " fill="#447355" transform="translate(40,44)"/>
<path d="M0 0 C5.03796209 2.37903765 6.65047239 5.1269057 9 10 C9 10.99 9 11.98 9 13 C8.34 13 7.68 13 7 13 C6.67 13.66 6.34 14.32 6 15 C3.80303036 11.70454554 3.08200806 8.78702822 2 5 C1.34 4.01 0.68 3.02 0 2 C0 1.34 0 0.68 0 0 Z " fill="#316744" transform="translate(38,9)"/>
<path d="M0 0 C1.485 0.99 1.485 0.99 3 2 C3 2.66 3 3.32 3 4 C4.175625 4.4640625 4.175625 4.4640625 5.375 4.9375 C8 6 8 6 10 7 C7.525 8.485 7.525 8.485 5 10 C4.34 9.34 3.68 8.68 3 8 C1.68252676 7.30251417 0.35085807 6.63040043 -1 6 C-1.042721 4.33388095 -1.04063832 2.66617115 -1 1 C-0.67 0.67 -0.34 0.34 0 0 Z " fill="#0C6531" transform="translate(55,98)"/>
<path d="M0 0 C0.69278763 2.15533928 1.11523472 3.56210807 0.53125 5.78125 C-0.11812621 8.49335064 -0.09566283 10.96432232 -0.0625 13.75 C-0.05347656 14.73484375 -0.04445313 15.7196875 -0.03515625 16.734375 C-0.02355469 17.48203125 -0.01195312 18.2296875 0 19 C-0.66 19.33 -1.32 19.66 -2 20 C-3.40053506 17.19892988 -3.2075504 14.81108319 -3.25 11.6875 C-3.27578125 10.55699219 -3.3015625 9.42648438 -3.328125 8.26171875 C-2.97205734 4.72223663 -2.04430289 2.86740379 0 0 Z " fill="#427052" transform="translate(10,15)"/>
<path d="M0 0 C1.2734375 1.515625 1.2734375 1.515625 2 4 C0.90409289 6.80362999 -0.73192538 9.23790036 -2.375 11.75 C-2.81328125 12.44738281 -3.2515625 13.14476563 -3.703125 13.86328125 C-4.78779605 15.58460705 -5.89207861 17.29354637 -7 19 C-7.66 18.01 -8.32 17.02 -9 16 C-8.34 16 -7.68 16 -7 16 C-6.84724609 15.20335938 -6.84724609 15.20335938 -6.69140625 14.390625 C-5.79691899 11.2978216 -4.40138873 8.61548432 -2.9375 5.75 C-2.11572266 4.13351563 -2.11572266 4.13351563 -1.27734375 2.484375 C-0.85582031 1.66453125 -0.43429688 0.8446875 0 0 Z " fill="#548263" transform="translate(108,55)"/>
<path d="M0 0 C1.97986082 0.11347619 3.95891598 0.2410935 5.9375 0.375 C7.03964844 0.44460938 8.14179688 0.51421875 9.27734375 0.5859375 C10.62505859 0.79089844 10.62505859 0.79089844 12 1 C12.33 1.66 12.66 2.32 13 3 C10.51245214 4.24377393 8.77344699 4.13306235 6 4.125 C5.113125 4.12757812 4.22625 4.13015625 3.3125 4.1328125 C1 4 1 4 -1 3 C-0.67 2.01 -0.34 1.02 0 0 Z " fill="#086632" transform="translate(22,9)"/>
<path d="M0 0 C0.66 0 1.32 0 2 0 C2.7013076 6.59229145 0.49602186 10.49376557 -3 16 C-3.66 15.67 -4.32 15.34 -5 15 C-5 14.34 -5 13.68 -5 13 C-4.34 13 -3.68 13 -3 13 C-3 11.02 -3 9.04 -3 7 C-2.01 6.67 -1.02 6.34 0 6 C0 4.02 0 2.04 0 0 Z " fill="#407151" transform="translate(122,28)"/>
<path d="M0 0 C0.33 0 0.66 0 1 0 C0.38756458 9.88344059 0.38756458 9.88344059 -3 13 C-3.66 13 -4.32 13 -5 13 C-4.48474397 7.71862571 -2.74522883 4.42778844 0 0 Z " fill="#467857" transform="translate(68,49)"/>
<path d="M0 0 C2.475 0.495 2.475 0.495 5 1 C5 1.66 5 2.32 5 3 C8.63 3 12.26 3 16 3 C16 3.99 16 4.98 16 6 C14.00045254 6.04254356 11.99958364 6.04080783 10 6 C9.67 5.67 9.34 5.34 9 5 C7.865625 4.896875 6.73125 4.79375 5.5625 4.6875 C2 4 2 4 0.5625 1.9375 C0.376875 1.298125 0.19125 0.65875 0 0 Z " fill="#226038" transform="translate(55,105)"/>
<path d="M0 0 C-1.45044271 4.10958767 -3.51110752 7.43258745 -6 11 C-7.231394 7.30581799 -6.64432764 4.7943739 -6 1 C-3.92446352 0.4465236 -2.15634036 0 0 0 Z " fill="#508263" transform="translate(88,95)"/>
<path d="M0 0 C0.82973374 2.38213881 1.10314333 3.65893095 0.36328125 6.10546875 C0.01652344 6.79253906 -0.33023438 7.47960937 -0.6875 8.1875 C-1.18830078 9.22970703 -1.18830078 9.22970703 -1.69921875 10.29296875 C-3.30835927 12.40466367 -4.42201159 12.63636795 -7 13 C-6.21085079 11.39459341 -5.41858235 9.79071984 -4.625 8.1875 C-4.18414062 7.29417969 -3.74328125 6.40085937 -3.2890625 5.48046875 C-2 3 -2 3 0 0 Z " fill="#558566" transform="translate(83,24)"/>
<path d="M0 0 C0.99 0.33 1.98 0.66 3 1 C0.69 4.96 -1.62 8.92 -4 13 C-4.66 11.68 -5.32 10.36 -6 9 C-5.34 8.67 -4.68 8.34 -4 8 C-3.67 7.01 -3.34 6.02 -3 5 C-2.34 5 -1.68 5 -1 5 C-0.67 3.35 -0.34 1.7 0 0 Z " fill="#578667" transform="translate(97,75)"/>
<path d="M0 0 C0.66 0.99 1.32 1.98 2 3 C1.25 5.625 1.25 5.625 0 8 C-0.99 8.495 -0.99 8.495 -2 9 C-2.33 9.66 -2.66 10.32 -3 11 C-3.99 10.67 -4.98 10.34 -6 10 C-4.02 6.7 -2.04 3.4 0 0 Z " fill="#4C7F5E" transform="translate(75,38)"/>
<path d="M0 0 C0.66 1.32 1.32 2.64 2 4 C2.99 4 3.98 4 5 4 C5 4.66 5 5.32 5 6 C7.475 6.99 7.475 6.99 10 8 C9.67 8.66 9.34 9.32 9 10 C3.98886765 8.5682479 2.05530451 6.01554307 -1 2 C-0.67 1.34 -0.34 0.68 0 0 Z " fill="#487758" transform="translate(10,35)"/>
<path d="M0 0 C0.33 0.66 0.66 1.32 1 2 C-2.625 7.75 -2.625 7.75 -6 10 C-6.33 9.01 -6.66 8.02 -7 7 C-6.01 7 -5.02 7 -4 7 C-4 5.35 -4 3.7 -4 2 C-2.68 1.34 -1.36 0.68 0 0 Z " fill="#598567" transform="translate(46,33)"/>
<path d="M0 0 C3.99881788 0.61520275 6.80358226 2.60268669 10 5 C10 5.66 10 6.32 10 7 C7.29068581 6.84518205 5.53415961 6.51827919 3.5546875 4.59765625 C2.32320358 3.10228292 1.1570163 1.5537076 0 0 Z " fill="#618A70" transform="translate(111,7)"/>
<path d="M0 0 C2.33294775 -0.04241723 4.66702567 -0.04092937 7 0 C7.33 0.33 7.66 0.66 8 1 C10.32817964 1.36760731 12.6618385 1.70241581 15 2 C15 2.33 15 2.66 15 3 C4.44191344 3.3690205 4.44191344 3.3690205 0 1 C0 0.67 0 0.34 0 0 Z " fill="#71977C" transform="translate(57,109)"/>
<path d="M0 0 C0.33 0.99 0.66 1.98 1 3 C-0.3125 5.5 -0.3125 5.5 -2 8 C-2.99 9.485 -2.99 9.485 -4 11 C-4.66 11 -5.32 11 -6 11 C-4.54955729 6.89041233 -2.48889248 3.56741255 0 0 Z " fill="#5B846B" transform="translate(90,13)"/>
<path d="M0 0 C0 0.33 0 0.66 0 1 C-1.093125 1.12375 -2.18625 1.2475 -3.3125 1.375 C-7.07381802 1.75464801 -7.07381802 1.75464801 -10 4 C-11.32 3.34 -12.64 2.68 -14 2 C-9.35150485 -0.3992233 -5.08913926 -0.19957409 0 0 Z " fill="#689378" transform="translate(110,6)"/>
<path d="M0 0 C0.37125 0.45375 0.7425 0.9075 1.125 1.375 C3.54264685 3.47029394 5.95430602 4.12013285 9 5 C9 5.66 9 6.32 9 7 C2.25 5.25 2.25 5.25 0 3 C0 2.01 0 1.02 0 0 Z " fill="#2B6E47" transform="translate(114,10)"/>
<path d="M0 0 C3.63 0 7.26 0 11 0 C11.33 1.32 11.66 2.64 12 4 C10.4221875 3.5359375 10.4221875 3.5359375 8.8125 3.0625 C5.87247604 2.24314906 2.99838377 1.54516069 0 1 C0 0.67 0 0.34 0 0 Z " fill="#1E6337" transform="translate(27,9)"/>
<path d="M0 0 C0.99 0.33 1.98 0.66 3 1 C1.92598892 3.91517292 1.22189824 5.77810176 -1 8 C-1.33 6.02 -1.66 4.04 -2 2 C-1.34 2 -0.68 2 0 2 C0 1.34 0 0.68 0 0 Z " fill="#487A5B" transform="translate(89,87)"/>
<path d="M0 0 C3.57104439 1.87949705 5.54744301 3.17053157 7 7 C4.83125748 6.49396008 3.00032373 6.00016187 1 5 C0.375 2.4375 0.375 2.4375 0 0 Z " fill="#598268" transform="translate(38,9)"/>
<path d="M0 0 C0.625 1.875 0.625 1.875 1 4 C0.34 4.66 -0.32 5.32 -1 6 C-1.69748583 7.31747324 -2.36959957 8.64914193 -3 10 C-3 7.69 -3 5.38 -3 3 C-2.34 3 -1.68 3 -1 3 C-0.67 2.01 -0.34 1.02 0 0 Z " fill="#246039" transform="translate(51,82)"/>
<path d="M0 0 C0.93423645 3.01031744 1.04449911 3.86650268 0 7 C-0.66 7 -1.32 7 -2 7 C-2.33 7.66 -2.66 8.32 -3 9 C-2.5020163 5.26512223 -2.12508244 3.18762365 0 0 Z " fill="#5D856A" transform="translate(10,15)"/>
</svg>
